<?xml version="1.0" encoding="UTF-8"?>
<!-- Generator: Adobe Illustrator 16.0.4, SVG Export Plug-In . SVG Version: 6.00 Build 0)  -->
<svg width="486.88" height="169.07" enable-background="new 0 0 595.28 419.53" version="1.1" viewBox="0 0 486.88 169.07" xml:space="preserve" xmlns="http://www.w3.org/2000/svg" xmlns:cc="http://creativecommons.org/ns#" xmlns:dc="http://purl.org/dc/elements/1.1/" xmlns:rdf="http://www.w3.org/1999/02/22-rdf-syntax-ns#"><metadata><rdf:RDF><cc:Work rdf:about=""><dc:format>image/svg+xml</dc:format><dc:type rdf:resource="http://purl.org/dc/dcmitype/StillImage"/><dc:title/></cc:Work></rdf:RDF></metadata>
<g transform="translate(-51.472 -125.32)">
	<path d="m54.366 189.16c3.822-43.664 112.78-69.802 243.36-58.373 130.59 11.424 233.35 56.086 229.53 99.748-3.817 43.672-112.78 69.799-243.36 58.377-130.58-11.43-233.35-56.083-229.52-99.752z" fill="#fff"/>
	<path d="m344.14 294.39c-19.717 0-40.069-0.907-60.487-2.692-134.15-11.74-236.08-56.887-232.06-102.78 3.278-37.448 79.716-63.602 185.88-63.602 19.724 0 40.079 0.906 60.502 2.694 63.448 5.55 122.42 19.048 166.04 38.005 44.541 19.356 67.989 42.357 66.027 64.764-3.326 38.043-78.033 63.607-185.9 63.607zm-106.67-163.49c-101.52 0-177.36 24.606-180.32 58.508-1.71 19.54 21.141 41.104 62.693 59.164 43.082 18.72 101.43 32.062 164.3 37.565 20.256 1.771 40.444 2.671 60 2.671 101.53 0 177.38-24.609 180.34-58.512 1.712-19.54-21.14-41.102-62.691-59.16-43.087-18.724-101.44-32.065-164.3-37.565-20.262-1.771-40.454-2.671-60.016-2.671z" fill="#0073b1"/>
</g>
<g transform="translate(-51.472 -125.32)">
	<path d="m208.85 234.69c-4.448 0-8.527-0.773-12.234-2.308-3.714-1.537-6.928-3.669-9.647-6.383-2.714-2.723-4.832-5.966-6.342-9.729-1.512-3.761-2.267-7.84-2.267-12.233s0.755-8.473 2.267-12.236c1.51-3.761 3.627-7.001 6.342-9.721 2.72-2.72 5.933-4.848 9.647-6.391 3.707-1.532 7.786-2.306 12.234-2.306 4.447 0 8.524 0.774 12.239 2.306 3.704 1.542 6.919 3.671 9.642 6.391 2.711 2.72 4.829 5.96 6.344 9.721 1.507 3.764 2.259 7.843 2.259 12.236s-0.752 8.473-2.259 12.233c-1.515 3.764-3.633 7.007-6.344 9.729-2.723 2.714-5.938 4.846-9.642 6.383-3.714 1.535-7.792 2.308-12.239 2.308z" fill="#f9b233"/>
</g>
<g transform="translate(-51.472 -125.32)">
	<path d="m230.31 160.62c-1.288 0.788-2.607 1.287-3.953 1.499-1.346 0.21-2.656 0.164-3.927-0.145-1.267-0.302-2.454-0.869-3.558-1.692-1.106-0.826-2.047-1.872-2.826-3.145-0.777-1.272-1.281-2.589-1.507-3.949-0.23-1.357-0.192-2.671 0.115-3.941s0.861-2.458 1.664-3.556c0.801-1.106 1.847-2.049 3.134-2.837 1.291-0.788 2.611-1.289 3.958-1.499 1.346-0.212 2.654-0.164 3.924 0.145 1.27 0.305 2.458 0.872 3.561 1.692 1.104 0.823 2.045 1.872 2.823 3.142 0.779 1.278 1.281 2.592 1.51 3.949 0.23 1.36 0.189 2.674-0.117 3.944-0.307 1.27-0.858 2.455-1.661 3.556-0.803 1.104-1.85 2.049-3.14 2.837z"/>
</g>
<g transform="translate(-51.472 -125.32)">
	<path d="m228.35 163.72c-1.228 0.752-2.481 1.224-3.763 1.425-1.28 0.202-2.526 0.158-3.734-0.133-1.208-0.289-2.338-0.829-3.387-1.614-1.053-0.782-1.945-1.779-2.687-2.989-0.74-1.216-1.221-2.464-1.437-3.755-0.219-1.292-0.181-2.543 0.11-3.75 0.292-1.208 0.82-2.341 1.582-3.388 0.766-1.046 1.758-1.946 2.986-2.695 1.226-0.752 2.481-1.226 3.762-1.428 1.281-0.199 2.527-0.155 3.736 0.136 1.206 0.292 2.335 0.831 3.386 1.613 1.049 0.782 1.947 1.777 2.686 2.99 0.743 1.212 1.218 2.463 1.438 3.755 0.218 1.294 0.18 2.545-0.11 3.75-0.289 1.21-0.819 2.338-1.582 3.388-0.765 1.046-1.761 1.948-2.986 2.695z" fill="#fff"/>
</g>
<g transform="translate(-51.472 -125.32)">
	<path d="m228.59 257.87c-0.717 0-1.374-0.125-1.973-0.373s-1.117-0.592-1.556-1.033c-0.439-0.436-0.782-0.959-1.025-1.567-0.242-0.607-0.365-1.264-0.365-1.976 0-0.708 0.123-1.365 0.365-1.973 0.243-0.605 0.586-1.129 1.025-1.57 0.439-0.438 0.957-0.782 1.556-1.029 0.6-0.246 1.256-0.371 1.973-0.371 0.719 0 1.379 0.125 1.976 0.371 0.597 0.247 1.115 0.591 1.556 1.029 0.439 0.441 0.779 0.965 1.025 1.57 0.243 0.607 0.365 1.265 0.365 1.973 0 0.712-0.123 1.368-0.365 1.976-0.246 0.608-0.586 1.132-1.025 1.567-0.441 0.441-0.959 0.785-1.556 1.033s-1.256 0.373-1.976 0.373z"/>
</g>
<g transform="translate(-51.472 -125.32)">
	<path d="m201.3 196.18c-0.72 0-1.379-0.123-1.979-0.374-0.597-0.248-1.115-0.588-1.554-1.03-0.438-0.437-0.779-0.959-1.024-1.57-0.246-0.605-0.365-1.265-0.365-1.973s0.12-1.368 0.365-1.976c0.245-0.605 0.586-1.128 1.024-1.567 0.439-0.441 0.957-0.785 1.554-1.03 0.599-0.248 1.259-0.373 1.979-0.373 0.714 0 1.373 0.125 1.973 0.373 0.6 0.246 1.118 0.589 1.554 1.03 0.441 0.439 0.782 0.962 1.024 1.567 0.246 0.608 0.365 1.268 0.365 1.976s-0.12 1.368-0.365 1.973c-0.242 0.61-0.583 1.133-1.024 1.57-0.436 0.441-0.954 0.782-1.554 1.03-0.6 0.251-1.259 0.374-1.973 0.374z"/>
</g>
<g transform="translate(-51.472 -125.32)">
	<path d="m504.16 225.1c-4.99 0-9.568-0.864-13.725-2.586-4.158-1.726-7.764-4.115-10.813-7.165s-5.424-6.682-7.116-10.909c-1.697-4.219-2.542-8.792-2.542-13.722s0.845-9.508 2.542-13.73c1.692-4.216 4.066-7.851 7.116-10.904 3.05-3.052 6.655-5.434 10.813-7.165 4.156-1.722 8.734-2.586 13.725-2.586 4.995 0 9.568 0.864 13.729 2.586 4.153 1.73 7.762 4.113 10.816 7.165 3.044 3.053 5.418 6.688 7.113 10.904 1.695 4.222 2.537 8.8 2.537 13.73s-0.842 9.503-2.537 13.722c-1.695 4.227-4.069 7.859-7.113 10.909-3.055 3.05-6.663 5.439-10.816 7.165-4.16 1.721-8.734 2.586-13.729 2.586z" fill="#0073b1"/>
</g>
<g transform="translate(-51.472 -125.32)">
		<path d="m97.751 180.85h28.878v4.862h-23.146v16.327h17.849v4.862h-17.849v17.776h23.363v4.862h-29.095z"/>
		<path d="m151.66 204.65-15.166-23.8h6.385l12.408 19.519h0.218l11.682-19.519h5.951l-14.585 23.873 15.456 24.816h-6.385l-12.917-20.608h-0.218l-12.987 20.608h-5.877z"/>
		<path d="m251.71 193.62h5.37v2.902h0.291c2.25-2.03 6.021-3.627 10.665-3.627 7.91 0 14.73 4.354 14.73 17.706v0.943c0 13.133-6.312 18.646-16.253 18.646-4.135 0-7.184-1.231-9.214-2.393v12.479h-5.588v-46.656zm25.251 18.723v-1.453c0-10.157-3.773-13.277-10.375-13.277-4.209 0-7.62 1.45-9.288 2.611v22.856c1.668 1.379 4.933 2.54 8.707 2.54 6.82 0 10.956-3.627 10.956-13.277z"/>
		<path d="m293.21 177.59h5.587v51.954h-5.587z"/>
		<path d="m308.89 220.11c0-6.312 4.063-9.65 10.955-10.449l9.724-1.161v-3.772c0-5.586-2.466-7.039-8.925-7.039-3.483 0-6.312 0.51-8.561 1.161v-3.99c3.118-1.305 6.601-1.959 10.738-1.959 7.908 0 12.334 3.265 12.334 10.593v26.051h-4.496l-0.584-3.12h-0.362c-1.668 2.03-4.717 3.771-9.576 3.771-6.532 0-11.247-3.336-11.247-10.086zm20.678 3.121v-10.593l-8.271 0.942c-4.429 0.437-6.604 2.251-6.604 6.386 0 3.919 2.685 5.878 6.818 5.878 3.343 0 6.534-1.09 8.057-2.613z"/>
		<path d="m347.41 193.55h5.298v3.121h0.289c3.339-2.178 7.982-3.774 12.408-3.774 7.039 0 10.448 2.829 10.448 9.794v26.849h-5.513v-25.688c0-4.352-1.523-6.167-7.258-6.167-3.409 0-7.184 1.234-10.159 2.613v29.242h-5.514v-35.99z"/>
		<path d="m385.86 212.06v-1.017c0-12.552 7.402-18.139 15.674-18.139 9.868 0 14.512 5.734 14.512 16.907v3.12h-24.524c0.288 8.996 4.57 12.479 12.264 12.479 4.788 0 7.979-1.161 11.244-2.685v4.137c-2.175 1.523-6.312 3.336-12.116 3.336-11.319 1e-3 -17.054-6.891-17.054-18.138zm5.661-3.556h18.72c0-7.835-2.974-11.1-8.852-11.1-4.499-1e-3 -9.288 2.61-9.868 11.1z"/>
		<path d="m428.6 221.42v-23.219h-5.151v-4.573h5.151v-8.56h5.516v8.56h9.214v4.573h-9.214v22.347c0 3.483 1.161 4.862 5.295 4.862 1.523 0 3.194-0.219 4.644-0.654v3.774c-1.449 0.654-2.973 1.452-6.093 1.452-5.662 1e-3 -9.362-2.468-9.362-8.562z"/>
</g>
<g transform="translate(-51.472 -125.32)" fill="#fff">
	<path d="m475.63 197.16h3.887v3.974h-3.887z"/>
	<path d="m486.84 189.25v-0.624c0-7.729 4.557-11.168 9.65-11.168 6.071 0 8.934 3.529 8.934 10.408v1.921h-15.099c0.178 5.54 2.812 7.682 7.549 7.682 2.946 0 4.911-0.714 6.923-1.651v2.545c-1.341 0.938-3.887 2.055-7.462 2.055-6.966 0-10.495-4.243-10.495-11.168zm3.485-2.188h11.522c0-4.823-1.831-6.832-5.45-6.832-2.768-1e-3 -5.717 1.607-6.072 6.832z"/>
	<path d="m511.54 193.94v-16.079h3.439v15.588c0 2.859 1.024 4.02 4.287 4.02 2.368 0 4.333-0.847 6.164-1.741v-17.867h3.393v22.156h-2.948l-0.311-2.011h-0.18c-2.009 1.384-4.377 2.412-7.059 2.412-4.33 0-6.785-2.188-6.785-6.478z"/>
</g>
</svg>
